<?xml version="1.0" encoding="utf-8"?>
<!-- Generator: Adobe Illustrator 23.0.5, SVG Export Plug-In . SVG Version: 6.00 Build 0)  -->
<svg version="1.1" id="Capa_1" xmlns="http://www.w3.org/2000/svg" xmlns:xlink="http://www.w3.org/1999/xlink" x="0px" y="0px"
	 viewBox="0 0 512.6 512.6" style="enable-background:new 0 0 512.6 512.6;" xml:space="preserve">
<style type="text/css">
	.st0{fill:#D07212;}
</style>
<g id="Fwe0eg.tif">
	<g>
		<path d="M28.3,0.2c152,0,304,0,456,0c0.6,0.3,1.1,0.7,1.7,0.9c17.8,5.7,26.2,17.2,26.2,35.9c0,123.3,0,246.6,0,369.9
			c0,3.3,0.1,6.6-0.7,9.9c-4.1,17-17.4,27.2-35.8,27.3c-43.3,0-86.6,0-130,0c-13.1,0-12.9,0-12.7,13.1c0.1,3.3,1.3,3.8,4.1,3.8
			c9-0.1,18-0.1,27,0c4.1,0,8.3,0,12.4,1.1c20.7,5.3,33.1,21.8,33.6,44c0.1,5-1.1,6.3-6.2,6.3c-96.3-0.2-192.6-0.1-288.9-0.1
			c-13.4,0-13.2,0-12-13.5c1.9-20.4,19.9-36.9,39.6-37.4c8.7-0.3,17.3-0.2,26-0.2c10.6,0,10.4,0,10.7-10.7c0.2-4.9-0.9-6.4-6.1-6.3
			c-45.5,0.2-91,0.1-136.5,0.1c-12.2,0-22.4-4.3-30-14.1c-3.2-4.2-4.4-9.2-6.6-13.8c0-129.3,0-258.7,0-388C2.4,23.4,3.8,18.3,7,14
			C12.4,6.6,20,3,28.3,0.2z M290.4,340.1c0.4,0.1,0.7,0.2,1.1,0.3c0.6-0.8,1.2-1.5,1.8-2.3c34.3-44.6,68.7-89.2,103-133.8
			c14.8-19.3,29.7-38.5,44.4-57.8c5-6.6,11.3-10.3,19.6-9.5c10.7,1.1,17.9,9.7,17.9,21c0,63,0,126,0,189c0,11.5,0,11.3,11.3,11.5
			c4.4,0.1,5.8-1,5.8-5.7c-0.2-98.5-0.2-197,0-295.5c0-4.8-1.2-6-6-6c-155.3,0.1-310.6,0.1-465.9,0c-5.3,0-6.1,1.7-6.1,6.4
			c0.1,94.3,0.1,188.6,0.1,283c0,4.5,0.2,9-0.1,13.5c-0.2,3.2,0.8,4.4,4.2,4.3c8-0.2,16-0.4,24,0c4.8,0.3,6.2-1,6-5.9
			c-0.3-12.8-1.5-25.9,0.3-38.4c4.3-30.8,10-61.3,15.2-92c0.6-3.4,0.3-5.8-2.5-8.4C53.2,203.5,45.3,191,39.4,177
			c-6.2-14.8-7.2-29.2,1.1-43.6c4-6.9,8.7-13.4,14-19.4c13.3-15,29.6-26.9,42.2-42.6c3.2-4,9.5-3.5,12.7,0.7
			c9.7,12.4,22.1,22.2,33.2,33.2c8.3,8.2,16,17,21.7,27.3c4.9,8.8,8.1,18,6.2,28.1c-4,21-14.3,38.5-29.6,53.1
			c-2.3,2.2-3.2,4.3-2.7,7.4c2.5,14.7,5,29.5,7.4,44.2c4.5,27,10.2,53.9,8.6,81.7c-0.7,11.3-0.1,11.2,11.4,11.4
			c4.2,0.1,5.3-1.1,5.3-5.3c-0.2-25.2-0.1-50.3-0.1-75.5c0-3.9,0.6-7.6,1.9-11.2c12.2-35,24.4-69.9,36.6-104.9
			c3.5-10.2,11.6-16.3,21.5-16.3c9.9,0,18,6.2,21.5,16.3c9.3,26.7,17.9,53.6,28,79.9c7.7,20.1,11.7,40.3,10.3,61.8
			C289.8,315.5,290.4,327.8,290.4,340.1z M256.3,376c-77.2,0-154.3,0-231.5,0c-1.3,0-2.7,0.1-4,0c-2.5-0.2-3.5,0.7-3.5,3.4
			c0.1,10-0.1,20,0.1,30c0.2,8.2,4.9,14.8,12,16.6c3.2,0.8,6.6,0.8,9.9,0.8c144.6,0,289.3,0,433.9,0c1.2,0,2.3,0,3.5,0
			c11.8-0.4,18.3-7,18.4-18.9c0.1-8.7-0.3-17.3,0.1-26c0.3-5-1.5-5.9-6.1-5.9C411.6,376,333.9,376,256.3,376z M299.8,358.2
			c2.2,0.1,3.3,0.2,4.4,0.2c16.2,0,32.3,0,48.5,0c2.3,0,3.1-1.5,4.3-2.9c9.5-11.8,18.9-23.7,28.4-35.5c2.8-3.5,6.4-4.9,10.6-3.4
			c4.1,1.5,5.5,4.8,5.5,9.1c-0.1,9.3,0.1,18.7-0.1,28c-0.1,3.7,0.8,4.9,4.7,4.8c14.5-0.2,29-0.1,43.5-0.1c11.8,0,11.6,0,11.8-11.6
			c0-3.9-1.1-5.1-5-5.1c-12.4,0.1-12.3-0.1-12.3-12.6c0-3.7,0.9-4.8,4.7-4.8c13.2,0.1,13.1-0.1,12.6-13.2c-0.1-2.9-1.2-3.7-3.9-3.6
			c-5.8,0.1-11.7,0-17.5,0c-13.9,0-13.9,0-13.1-13.8c0.1-2.6,0.9-3.5,3.5-3.4c6.2,0.2,12.3,0,18.5,0c12.5,0,12.4,0,12.5-12.4
			c0-3.9-1.3-4.7-4.9-4.6c-12.5,0.1-12.4,0-12.5-12.3c0-3.7,0.9-4.8,4.7-4.8c13,0.1,12.9,0,12.6-13.1c-0.1-3.2-1.2-3.9-4.1-3.8
			c-5.8,0.2-11.7,0.1-17.5,0.1c-13.5,0-13.4,0-12.9-13.5c0.1-2.8,0.9-3.7,3.7-3.7c8.8,0.1,17.7-0.1,26.5,0.1
			c3.3,0.1,4.2-1.1,4.2-4.3c-0.2-13.3-0.1-26.7-0.1-40c0-6.5,0.1-13-0.1-19.5c-0.1-2.7-0.9-5.4-4.6-3.5c-1.1,0.6-1.8,1.9-2.6,2.9
			c-39.7,51.6-79.4,103.2-119.1,154.8C323.3,327.5,311.8,342.5,299.8,358.2z M17.7,34.3c1.5,0,3,0,4.5,0c156.1,0,312.2,0,468.3,0.1
			c5.1,0,5-2,3.7-5.5c-2.1-5.5-5.8-9.2-11.6-10.8c-2.8-0.8-5.6-0.8-8.4-0.8c-145.3,0-290.5,0-435.8,0c-2,0-4,0-6,0.3
			C23.5,19.1,18.5,24.7,17.7,34.3z M121.9,495.2c2.2,0,4,0,5.9,0c31.2,0,62.3,0,93.5,0c55,0,110,0,164.9,0c1.4,0,3.3,0.8,4.1-0.7
			c0.7-1.4-0.6-2.8-1.4-4c-5.4-8.5-13.2-12.3-23.1-12.3c-62,0-123.9,0-185.9,0c-11.5,0-23-0.1-34.5,0
			C134.4,478.4,125,485,121.9,495.2z M135,307c-0.7-4.5-1.4-8.7-2-13c-0.4-2.7-1.5-3.9-4.5-3.8c-8,0.3-16,0.1-24,0.1
			c-6.8-0.1-10.4-3.2-10.3-8.7c0.1-5.2,3.8-8.3,10.2-8.3c7.2,0,14.3-0.1,21.5,0c2.4,0,3.6-0.3,3.1-3.3c-2.7-14.9-5.2-29.8-7.6-44.7
			c-0.4-2.7-1.5-3.2-3.8-3.2c-7.7,0.1-15.3,0-23,0c-10,0-10.2,0-11.9,10c-4.3,24.8-8.3,49.7-12.5,74.9C92,307,113.4,307,135,307z
			 M153.4,156.5c0.5-8.1-3-14.3-7-20.2c-11.6-16.9-28-29.3-42.3-43.8c-1.4-1.5-2.2-0.5-3.2,0.4c-12,11.8-25,22.5-35.9,35.4
			c-5.8,6.9-11.1,14.2-12.8,23.3c-0.3,1.4-1.3,3.2,0.1,4.2c1.4,0.9,2.7-0.7,4-1.4c11.3-6.4,22.9-7.2,34.2-0.7c8.4,4.8,16,5,24.3,0
			c6.9-4.1,14.5-5.2,22.6-3.7C143,151.1,147.7,154.3,153.4,156.5z M230.7,230.9c-8,0-16,0.1-24,0c-2.3,0-3.7,0.6-4.5,2.9
			c-3.6,10.7-7.3,21.4-11.1,32c-1,2.7,0.1,3.3,2.2,4.3c8.3,4,16.6,3.5,24.4-0.6c8.8-4.7,16.9-5,25.8-0.1c7.6,4.2,16,4.8,24.3,0.8
			c2.5-1.2,3.1-2.2,2.2-4.8c-3.7-10.3-7.3-20.6-10.8-31c-0.9-2.7-2.3-3.5-5.1-3.5C246.4,231,238.6,230.9,230.7,230.9z M102.6,205
			c6.3,0,12.7,0,19,0c1.7,0,3.2,0,4.6-1.2c8.9-8,16.1-17.2,21.2-28.1c0.4-0.8,1.1-1.5,0-2.5c-6.6-6.3-17.7-8.1-26-3.3
			c-12.8,7.2-25.3,7.4-37.8-0.2c-3.7-2.3-7.7-2.9-12-2.4c-5.2,0.5-9,4-13.6,6c-2,0.9-0.3,2.3,0.2,3.3c4,8.5,9.6,15.9,15.9,22.8
			c4,4.4,8.4,6.4,14.4,5.8C93.3,204.7,98,205,102.6,205z M273.3,322.6c0-10.7-0.1-21.3,0.1-32c0-3-0.3-4.4-3.8-3.1
			c-8.9,3.5-17.9,3.4-26.7-0.1c-3-1.2-3.6-0.2-3.6,2.7c0.1,21.5,0.1,43,0,64.4c0,2.8,0.8,3.7,3.7,3.7c8.8-0.2,17.7-0.2,26.5,0
			c3.5,0.1,4.1-1.3,4-4.4C273.2,343.6,273.3,333.1,273.3,322.6z M222.2,322.7c0-10.7-0.1-21.3,0-32c0-2.9-0.3-4.5-3.8-3.1
			c-8.9,3.5-17.8,3.4-26.7,0c-2.6-1-3.5-0.3-3.5,2.5c0.1,21.6,0.1,43.3,0,64.9c0,2.7,0.9,3.4,3.5,3.4c8.8-0.1,17.6-0.2,26.5,0
			c3.4,0.1,4.2-1.1,4.2-4.3C222.1,343.7,222.2,333.2,222.2,322.7z M102.3,358.4c10.2,0,20.3-0.1,30.5,0c2.7,0,3.9-0.6,3.8-3.6
			c-0.2-8.8-0.2-17.7,0-26.5c0.1-3.3-1.4-3.8-4.2-3.8c-19.8,0.1-39.6,0.1-59.5,0c-3.2,0-4.5,0.8-4.4,4.2c0.2,8.5,0.2,17,0,25.5
			c-0.1,3.2,0.9,4.3,4.2,4.2C82.7,358.3,92.5,358.4,102.3,358.4z M256.3,461c16,0,32,0,48,0c11.7,0,11.5,0,11.8-11.7
			c0.1-4.2-1.2-5.2-5.3-5.2c-34,0.2-67.9,0.1-101.9,0.1c-12.3,0-12.2,0-12.2,12.2c0,3.7,1,4.8,4.8,4.8
			C219.7,460.9,238,461,256.3,461z M230.6,213.3c5.8,0,11.6,0,17.5,0c2.4,0,3.9-0.1,2.7-3.3c-5.1-14.4-10.1-28.8-15-43.2
			c-0.9-2.5-2.4-4-5.1-4c-2.7,0-4.3,1.5-5.1,3.9c-5,14.4-10,28.8-15,43.2c-1,2.8-0.1,3.4,2.6,3.4C219,213.2,224.8,213.3,230.6,213.3
			z M383.8,349.6c-2.4,3.1-4.3,5.5-6.4,8.2C384.9,359,384.9,359,383.8,349.6z"/>
		<path class="st0" d="M418.4,68.3c15.7,0,31.3,0.1,47-0.1c3.5,0,4.5,1.1,4.5,4.5c-0.2,14.3-0.1,28.7,0,43c0,3.2-0.9,4.3-4.2,4.3
			c-13.2,0.2-13.2,0.3-13.2-12.7c0-5.7-0.3-11.3,0.1-17c0.2-3.9-1.2-4.7-4.8-4.7c-25,0.1-50,0-75,0.2c-4.3,0-5.7-1-5.6-5.5
			c0.3-12.1,0.1-12.1,12.3-12.1C392.4,68.3,405.4,68.3,418.4,68.3z"/>
		<path class="st0" d="M350.3,77.2c0,8.6,0,8.6-8.7,8.6c-8.4,0-8.4,0-8.4-8.4c0-9,0-9,8.8-9C350.3,68.3,350.3,68.3,350.3,77.2z"/>
		<path class="st0" d="M256.4,392.5c4.5,0,9,0.1,13.5,0c2.4-0.1,3.5,0.6,3.6,3.3c0.8,14.3,0.9,14.3-13.5,14.3
			c-5.5,0-11-0.1-16.4,0.1c-3,0.1-4.3-0.6-4.4-4c-0.2-13.6-0.3-13.6,13.2-13.6C253.7,392.5,255,392.5,256.4,392.5z"/>
		<path class="st0" d="M213.6,392.5c8.6,0,8.6,0,8.6,8.6c0,8.9,0,8.9-8.8,8.9c-8.4,0-8.4,0-8.4-8.4c0-0.2,0-0.3,0-0.5
			C205.1,392.5,205.1,392.5,213.6,392.5z"/>
		<path class="st0" d="M298.9,410.1c-8.6,0-8.6,0-8.6-8.6c0-9,0-9,8.8-9c8.4,0,8.4,0,8.4,8.4c0,0.2,0,0.3,0,0.5
			C307.5,410.1,307.5,410.1,298.9,410.1z"/>
	</g>
</g>
<path class="st0" d="M300.8,356.6c2.2,0.1,3.3,0.2,4.4,0.2c16.2,0,32.3,0,48.5,0c2.3,0,3.1-1.5,4.3-2.9
	c9.5-11.8,18.9-23.7,28.4-35.5c2.8-3.5,6.4-4.9,10.6-3.4c4.1,1.5,5.5,4.8,5.5,9.1c-0.1,9.3,0.1,18.7-0.1,28
	c-0.1,3.7,0.8,4.9,4.7,4.8c14.5-0.2,29-0.1,43.5-0.1c11.8,0,11.6,0,11.8-11.6c0-3.9-1.1-5.1-5-5.1c-12.4,0.1-12.3-0.1-12.3-12.6
	c0-3.7,0.9-4.8,4.7-4.8c13.2,0.1,13.1-0.1,12.6-13.2c-0.1-2.9-1.2-3.7-3.9-3.6c-5.8,0.1-11.7,0-17.5,0c-13.9,0-13.9,0-13.1-13.8
	c0.1-2.6,0.9-3.5,3.5-3.4c6.2,0.2,12.3,0,18.5,0c12.5,0,12.4,0,12.5-12.4c0-3.9-1.3-4.7-4.9-4.6c-12.5,0.1-12.4,0-12.5-12.3
	c0-3.7,0.9-4.8,4.7-4.8c13,0.1,12.9,0,12.6-13.1c-0.1-3.2-1.2-3.9-4.1-3.8c-5.8,0.2-11.7,0.1-17.5,0.1c-13.5,0-13.4,0-12.9-13.5
	c0.1-2.8,0.9-3.7,3.7-3.7c8.8,0.1,17.7-0.1,26.5,0.1c3.3,0.1,4.2-1.1,4.2-4.3c-0.2-13.3-0.1-26.7-0.1-40c0-6.5,0.1-13-0.1-19.5
	c-0.1-2.7-0.9-5.4-4.6-3.5c-1.1,0.6-1.8,1.9-2.6,2.9c-39.7,51.6-79.4,103.2-119.1,154.8C324.3,326,312.9,340.9,300.8,356.6z"/>
<path class="st0" d="M154.4,154.9c0.5-8.1-3-14.3-7-20.2c-11.6-16.9-28-29.3-42.3-43.8c-1.4-1.5-2.2-0.5-3.2,0.4
	c-12,11.8-25,22.5-35.9,35.4c-5.8,6.9-11.1,14.2-12.8,23.3c-0.3,1.4-1.3,3.2,0.1,4.2c1.4,0.9,2.7-0.7,4-1.4
	c11.3-6.4,22.9-7.2,34.2-0.7c8.4,4.8,16,5,24.3,0c6.9-4.1,14.5-5.2,22.6-3.7C144.1,149.5,148.7,152.8,154.4,154.9z"/>
</svg>
