<?xml version="1.0" encoding="utf-8"?>
<!-- Generator: Adobe Illustrator 23.0.5, SVG Export Plug-In . SVG Version: 6.00 Build 0)  -->
<svg version="1.1" id="Capa_1" xmlns="http://www.w3.org/2000/svg" xmlns:xlink="http://www.w3.org/1999/xlink" x="0px" y="0px"
	 viewBox="0 0 512.6 512.6" style="enable-background:new 0 0 512.6 512.6;" xml:space="preserve">
<style type="text/css">
	.st0{fill:#D07212;}
	.st1{fill:#FFFFFF;}
</style>
<g id="d3vFcB.tif">
	<g>
		<path d="M333,0c9.3,0,18.7,0,28,0c1,0.2,1.9,0.5,2.9,0.7c23.8,4.5,43.7,15.8,59.3,34.4c10.6,12.6,17.6,27,21.1,43.1
			c0.5,2.5,1.1,4.6,4.4,4c4.8-0.9,9.6-0.3,14.4,0.5c29.5,4.4,54.3,31.9,48.7,66.8c-4.7,29.6-27.4,48.2-58.3,49.7
			c-7,0.3-7.1,0.3-7.1,7.5c0,49.7,0,99.3,0,149c0,8.8-2.6,16.7-7.7,23.8c-9.1,12.7-21.9,17.9-37.2,17.9c-32.3,0-64.7,0.1-97-0.1
			c-4.7,0-6.6,1.4-6.4,6.3c0.3,6.7,0.2,13.3,0,20c-0.1,3.9,1.6,5.4,5.4,5.2c3.5-0.2,7-0.1,10.5,0c15.8,0.4,28.7,10.8,32.5,26.2
			c1.4,5.4,0.7,10.9,0.8,16.4c0.1,8.1,0,8.1-8.2,8.1c-77.5,0-155,0-232.5,0c-0.8,0-1.7-0.1-2.5,0c-4.5,0.6-5.9-1.6-5.6-5.8
			c0.3-3.8,0-7.7,0.1-11.5c0.1-15.9,11-29.1,26.5-32.6c5.5-1.2,11-1,16.4-0.8c4.9,0.2,6.5-1.7,6.3-6.4c-0.3-6-0.1-12-0.1-18
			c0-7-0.1-7-7-7c-32,0-64,0-96,0c-4.7,0-9.3-0.4-13.8-1.6C14.4,391.2,4.7,380,0,364c0-94,0-188,0-282c8.2-23.6,21.8-33.3,46.7-33.3
			c69.3,0,138.5,0,207.8,0.1c4.3,0,7-1.3,9.3-5c6.8-10.7,15.6-19.4,25.9-26.7C302.8,7.9,317.4,2.8,333,0z M173,312.9
			c19.2,0,38.3,0,57.5,0c19.8,0,39.7,0,59.5,0c6.4,0,6.7-0.3,6.7-6.8c0-5.5,0.3-11-0.1-16.5c-0.4-5.2,1.3-8.3,6.6-9.1
			c5.1-0.8,7.5-4.1,9-8.8c1.3-4.2-1.2-7.1-2.9-10.2c-1.7-3.2-1.3-5.4,1.2-7.9c8.4-8.1,16.7-16.3,24.7-24.8c3.2-3.4,6.1-4.1,9.9-1.5
			c3.9,2.7,7.8,3.4,12.5,1c4.2-2.1,4.7-5.9,5.8-9.3c1.2-3.9,3.3-5.3,7.2-5.2c6.7,0.2,13.3,0.1,20,0c1.6,0,3.8,0.3,4.4-1.6
			c1.1-3.7,1.3-7.7,0-11.2c-1.1-2.9-4.4-1.8-6.8-1.8c-41.3-0.1-82.6,0-124,0c-4.5,0-9-0.2-13.5-0.6c-39.3-3.8-63.5-43.3-49.1-79.9
			c2.2-5.5,5.2-10.4,8.8-15c0.7-0.8,2.1-1.6,1.4-2.9c-0.6-1.1-2.1-0.7-3.2-0.8c-0.7,0-1.3,0-2,0c-49.7,0-99.3,0-149,0
			c-7.3,0-7.5,0.3-7.5,7.7c0,66,0,132,0,197.9c0,7.3,0.1,7.4,7.7,7.4C96.3,312.9,134.6,312.9,173,312.9z M222.8,331.2
			c-56.7,0-113.3-0.1-170,0.1c-12,0-20.5-7-20.4-20.3c0.4-51.5,0.2-103,0.2-154.5c0-18.8,0-37.7,0-56.5c0-10.8,6.7-17.8,17.6-18.2
			c2-0.1,4,0,6,0c61,0,122,0,183,0c9.3,0,9.3,0,11.4-9c0-0.2,0-0.3,0.1-0.5c1.6-4.2-0.4-5.5-4.3-5.4c-1.7,0.1-3.3,0-5,0
			c-64.3,0-128.7,0-193,0c-2.5,0-5,0-7.5,0.1c-14.5,0.8-23.6,10.4-23.6,24.9c-0.1,16.2,0,32.3,0,48.5c0,71.2,0,142.3,0,213.5
			c0,12,6.5,21.1,17.1,24.2c3.9,1.1,7.9,0.9,11.9,0.9c80.5,0,161,0,241.5,0c1.2,0,2.3-0.1,3.5,0c3.8,0.2,5.4-1.4,5.3-5.3
			c-0.2-7.5,0.1-15-0.1-22.5c-0.1-3.6,1.4-5.2,4.9-5.2c13.7,0,27.3,0,41,0c3.6,0,5,1.6,4.9,5.2c-0.2,7.3,0.1,14.7-0.1,22
			c-0.1,4.4,1.7,6.1,5.9,5.8c1.2-0.1,2.3-0.1,3.5,0c4.6,0.4,6.2-1.7,6-6.2c-0.3-7.2,0.1-14.3-0.1-21.5c-0.1-4,1.6-5.3,5.3-5.3
			c13.5,0.1,27,0.1,40.5,0c3.5,0,5.1,1.3,5,5.1c-0.2,7-0.1,14,0,21c0,1.4-0.7,3.3,0.8,4.1c1.7,0.9,3.1-0.8,4.3-1.8
			c6.7-5,10.1-11.7,10.1-20.2c0-41.2,0-82.3,0-123.5c0-8.7,0-17.3,0-26c0-1.8,0.5-4.1-1.5-4.9c-3.8-1.5-8-1.4-11.8-0.2
			c-3.2,1-1.9,4.6-1.9,7.1c-0.1,35.3,0,70.7-0.1,106c0,10.2-5.5,16.6-15.6,18.1c-2.5,0.4-5,0.3-7.5,0.3
			C334.5,331.2,278.7,331.2,222.8,331.2z M223.5,397.3c-17.3,0-34.6,0-51.9,0c-3.3,0-5.6,0.6-5.5,4.6c0.1,7.5,0,15,0,22.5
			c0,3.2,1.6,4.4,4.7,4.4c34.8,0,69.5,0,104.3,0c3.4,0,4.8-1.4,4.8-4.8c-0.1-6.7,0-13.3,0-20c0-6.4-0.3-6.6-6.9-6.6
			C256.5,397.3,240,397.3,223.5,397.3z M222.8,461.7c33.8,0,67.7,0,101.5,0c5.2,0,6.1-1.3,3.8-5.9c-3.5-6.9-9.5-9.4-16.9-9.4
			c-24,0-48,0-72,0c-34.7,0-69.3,0-104,0c-6.7,0-12.6,1.7-16.3,7.7c-1.2,1.9-2.9,4.1-1.6,6.4c1.2,2,3.7,1.1,5.6,1.1
			C156.1,461.7,189.4,461.7,222.8,461.7z M395.7,248.8c0-1.5,0-3,0-4.5c-0.2-13.3,2-12.1-12.3-12.3c-4-0.1-6.2,1.4-7.1,5.3
			c-0.6,2.9-2.4,4.4-5.4,5.2c-5.3,1.4-10.4,3.6-15.2,6.3c-1.8,1-3.7,2.2-5.6,0.8c-5.8-4.3-9.7-1.4-13.3,3.1
			c-1.3,1.7-2.9,3.2-4.6,4.6c-2.6,2.2-3,4.6-1.1,7.4c2.1,3.1,1.9,6-0.1,9.2c-2.7,4.4-4.5,9.3-5.8,14.3c-0.7,2.6-1.9,4.7-4.7,5.2
			c-5.2,0.9-6.7,4.1-6.1,9c0.2,1.6,0.1,3.3,0,5c-0.3,3.8,1.2,5.5,5.1,5.5c7.3-0.1,14.7-0.1,22,0c3.8,0.1,5.4-1.3,5.1-5.3
			c-0.9-10.6,2.3-20.1,9-28.3c9-11,20.9-16.3,35.1-15.5c4.1,0.2,5.4-1.1,5.1-5C395.4,255.5,395.7,252.1,395.7,248.8z M380.3,312.8
			c3.7,0,7.3,0,11,0c3.2,0,4.5-1.5,4.4-4.6c-0.1-6.5,0-13,0-19.4c0-6-1.3-7.3-7.3-7.4c-14.1-0.4-26,13-24,27c0.4,3,1.9,4.4,4.9,4.4
			C372.9,312.8,376.6,312.8,380.3,312.8z M322.2,364.2c-7.8,0-7.8,0-7.9,7.1c0,7.5,0.1,7.6,7.4,7.6c7.6,0,7.9-0.2,7.9-7.2
			C329.7,364.2,329.7,364.2,322.2,364.2z M388.4,364.2c-8,0-8,0-8,6.9c0,7.6,0.2,7.8,7.3,7.8c7.8,0,8-0.2,8-7
			C395.7,364.3,395.7,364.3,388.4,364.2z"/>
		<path class="st0" d="M453.9,512.4c-10.3,0-20.7-0.6-30.9,0.2c-14.5,1.1-28.6-11-27.3-29.1c2.2-30.6,28.1-54.9,58.8-54.8
			c33.2,0.1,59.8,28.3,57.9,61.3c-0.7,11.7-11.5,22.2-23.5,22.3C477.2,512.5,465.5,512.4,453.9,512.4z M453.8,494.7
			c9.7,0,19.3-0.4,29,0.1c12.1,0.6,12.7-5.7,11.5-13.9c-0.2-1.2-0.4-2.3-0.7-3.4c-5.2-19.6-22.2-31.9-41-30.7
			c-21.9,1.4-35.8,15.5-38.9,37.4c-1,6.7,2.3,10.5,9.2,10.6C433.1,494.7,443.5,494.7,453.8,494.7z"/>
		<path class="st0" d="M132,232.1c-19.8,0-39.6,0-59.4,0c-6.8,0-7-0.2-7-7c0.1-12-1.8-11.3,11.2-11.3c37.9,0,75.9,0,113.8,0
			c8.3,0,8.4,0.2,8.5,8.3c0,10.1,0,10.1-10.2,10.1C169.9,232.1,151,232.1,132,232.1z"/>
		<path class="st0" d="M132.2,298.2c-20,0-39.9,0-59.9,0c-6.5,0-6.7-0.3-6.7-6.8c0.1-12.2-2-11.5,11.5-11.5c37.9,0,75.9,0,113.8,0
			c7.9,0,8.1,0.2,8.2,8.1c0.1,10.3,0.1,10.3-10,10.3C170.2,298.2,151.2,298.2,132.2,298.2z"/>
		<path class="st0" d="M265.2,256.3c0,8.5,0,8.5-8.3,9c-5.7,0.3-8,2.6-8.5,8.3c-1.5,16-14.6,26.6-30.4,24.6c-0.5-0.1-1.1,0-1.5-0.2
			c-5.3-3.7-1.8-9.1-2.5-13.7c-0.5-2.9,1.5-4.2,4.3-4.2c1.3,0,2.7,0,4-0.1c5.4-0.4,7.9-2.7,8.3-8c0.3-4.8,1.5-9.2,4.2-13.1
			c1.3-1.9,1.3-3.5,0-5.4c-2.6-3.8-3.9-8-4.2-12.6c-0.4-6-2.8-8.2-8.9-8.5c-7.9-0.4-7.9-0.4-7.9-8.3c0-10.4,1-11.3,11.6-9.6
			c13.6,2.2,21.7,10.7,22.9,24.3c0.5,5.5,2.8,8.2,8.1,8.2C265.9,246.6,265.1,247.8,265.2,256.3z"/>
		<path d="M116.3,123.8c0,1.3-0.1,2.7,0,4c0.3,3.6-1.3,5-4.9,5.2c-10.5,0.7-9.4,1.3-12.6,11.5c-2.7,8.8-2.6,16,0,24.7
			c2.3,7.8,3.2,12.5,12.6,11.5c3.3-0.3,5,1.2,4.8,4.7c-0.1,2.3,0,4.7,0,7c-0.1,6-0.7,6.6-6.5,6.6c-15.9-0.1-26-9-28-24.8
			c-0.8-6.2-2.6-7.9-9-8.3c-7.1-0.4-7.1-0.4-7.1-7.4c0-0.7,0-1.3,0-2c0.1-8-1.2-8.9,8.2-9c5.2,0,7.2-2.4,8-8.2
			c1.8-14.3,10.9-23.3,24.6-24.6C115.8,114,116.3,114.5,116.3,123.8z"/>
		<path class="st0" d="M148.8,246.8c14.6,0,29.3,0.1,43.9-0.1c4.7-0.1,6.4,1.7,6.5,6.4c0.1,12,0.3,12-11.8,12c-27.1,0-54.2,0-81.3,0
			c-7.4,0-7.5-0.1-7.4-7.6c0.1-11.1-1.8-10.8,10.7-10.8C122.5,246.8,135.7,246.8,148.8,246.8z"/>
		<path d="M157.3,114.8c6.7,0,13.3,0.1,20,0c3.5,0,5.2,1.2,5.2,4.9c-0.3,14.8,2,13.2-12.7,13.3c-10.6,0.1-21.3-0.1-31.9,0
			c-4.3,0.1-6.3-1.2-6.2-6c0.4-13.8-1.7-12.2,12.2-12.3C148.3,114.7,152.8,114.7,157.3,114.8C157.3,114.7,157.3,114.7,157.3,114.8z"
			/>
		<path d="M157.4,147.8c6.7,0,13.3,0.1,20,0c3.5,0,5.1,1.4,5.1,5c-0.3,14.8,2,13.2-12.8,13.3c-10.7,0.1-21.3-0.1-32,0
			c-4.4,0.1-6.2-1.4-6.1-6.1c0.4-13.7-1.7-12.1,12.3-12.2C148.4,147.7,152.9,147.7,157.4,147.8C157.4,147.8,157.4,147.8,157.4,147.8
			z"/>
		<path d="M156.9,199.1c-6.8,0-13.6,0-20.5,0c-3.2,0-4.9-1.2-4.8-4.7c0.2-15.6-2-13.4,12.9-13.6c10.7-0.1,21.3,0.1,32-0.1
			c4.2-0.1,6,1.3,5.9,5.8c-0.4,13.8,1.9,12.5-12.5,12.6C165.6,199.1,161.2,199.1,156.9,199.1C156.9,199.1,156.9,199.1,156.9,199.1z"
			/>
		<path class="st0" d="M83.3,256c0,1.2-0.1,2.3,0,3.5c0.4,4-1.4,5.7-5.4,5.7c-14.8,0-12,0.6-12.3-11.7c-0.1-6.4,0.2-6.6,6.8-6.7
			c0.5,0,1,0,1.5,0C83.3,246.8,83.3,246.8,83.3,256z"/>
	</g>
</g>
<path class="st0" d="M354.5,181.4C354.5,181.4,354.5,181.4,354.5,181.4c33.8,0,67.7,0.1,101.5-0.1c20.8-0.1,38.4-18.1,38.7-38.8
	c0.3-22.4-16-40.4-37.3-41.7c-8.2-0.5-15.9,1.4-23.3,4.4c-3.8,1.5-5.3,0.4-5.3-3.5c0-4.3-0.4-8.6-0.9-12.9
	c-5.1-40.5-42.1-75.3-89.4-70.4c-38.9,4-67.3,32.4-72.9,71.1c-1.5,10.7-1.5,10.7-12.6,11.4c-20.8,1.3-37.4,18.7-37.6,39.5
	c-0.2,22.7,17.5,41,40.1,41.1C288.5,181.5,321.5,181.4,354.5,181.4z"/>
<path class="st1" d="M365.5,69.6c-2.2,13.1-4.3,26.2-6.5,39.3c-2.9,17.2-5.9,34.4-8.6,51.6c-0.7,4.3-2.4,5.6-6.6,4.8
	c-11.9-2.1-12.1-2-10-14.5c4.6-27.7,9.3-55.4,13.9-83.1c0.6-3.5,1.8-5.1,5.6-4.1c2.7,0.7,5.6,0.9,8.4,1.3
	C364.3,65.4,366.1,66.4,365.5,69.6z"/>
<path class="st1" d="M329.7,87.9c-0.7,0.8-1.6,2-2.6,3.1c-6.6,6.6-13.1,13.3-19.8,19.8c-2.9,2.8-2.7,4.7,0.1,7.3
	c6.9,6.6,13.4,13.4,20.2,20.1c2.4,2.3,2.7,4.1,0.1,6.6c-11.7,11.1-7.7,11-18.6,0.4c-9.1-8.8-17.9-18-26.9-26.8
	c-2.9-2.8-3.3-4.7-0.2-7.7c11-10.7,21.8-21.6,32.5-32.5c2.7-2.7,4.7-3.1,7.3-0.1c1.9,2.3,4.2,4.3,6.3,6.4
	C328.9,85.3,329.9,86.1,329.7,87.9z"/>
<path class="st1" d="M380.1,153.2c-2.3-0.2-3.3-1.6-4.4-2.8c-10.4-10.6-10-7.3-0.2-17.5c5-5.1,10-10.3,15.2-15.2
	c2.8-2.6,2.5-4.4-0.1-6.9c-6.9-6.6-13.4-13.5-20.2-20.1c-2.5-2.5-2.8-4.2-0.2-7c9.1-9.4,9-9.5,18.2-0.3c9,9,17.8,18,26.9,26.8
	c3,2.9,3.5,4.9,0.2,8c-10.8,10.4-21.3,21.1-31.9,31.7C382.4,151.3,381.1,152.3,380.1,153.2z"/>
</svg>
