<?xml version="1.0" encoding="utf-8"?>
<!-- Generator: Adobe Illustrator 23.0.5, SVG Export Plug-In . SVG Version: 6.00 Build 0)  -->
<svg version="1.1" id="Capa_1" xmlns="http://www.w3.org/2000/svg" xmlns:xlink="http://www.w3.org/1999/xlink" x="0px" y="0px"
	 viewBox="0 0 77.3 35.4" style="enable-background:new 0 0 77.3 35.4;" xml:space="preserve">
<style type="text/css">
	.st0{fill:#D07212;}
	.st1{fill:#FFFFFF;}
</style>
<path class="st0" d="M76,8.4L53.8,33.6c-1,1.1-2.3,1.7-3.8,1.7H0V0h72.3C76.6,0,78.9,5.1,76,8.4z"/>
<path class="st1" d="M47.5,8.3H27.6c-1.6,0-2.9,1.3-2.9,2.9v11.4c0,1.6,1.3,2.9,2.9,2.9h19.9c1.6,0,2.9-1.3,2.9-2.9V11.2
	C50.4,9.6,49.1,8.3,47.5,8.3z M41.6,16.9l7.3-6.7c0.2,0.3,0.3,0.6,0.3,1v11.4c0,0.4-0.1,0.7-0.3,1L41.6,16.9z M47.5,9.5
	c0.1,0,0.3,0,0.4,0.1l-9.6,8.8c-0.4,0.4-1.1,0.4-1.6,0l-9.6-8.8c0.1,0,0.3-0.1,0.4-0.1H47.5z M26.2,23.6c-0.2-0.3-0.3-0.6-0.3-1
	V11.2c0-0.4,0.1-0.7,0.3-1l7.3,6.7L26.2,23.6z M27.6,24.4c-0.1,0-0.3,0-0.4-0.1l7.2-6.6l1.6,1.4c0.4,0.4,1,0.6,1.6,0.6
	c0.6,0,1.2-0.2,1.6-0.6l1.6-1.4l7.2,6.6c-0.1,0-0.3,0.1-0.4,0.1H27.6z"/>
<path class="st0" d="M76.9,7l-23.8,27c-0.8,0.9-1.9,1.4-3.1,1.4H-0.4V0h74.2C77.4,0,79.3,4.2,76.9,7z"/>
<path class="st1" d="M46.4,23.6l-3.9-3.7c-0.7-0.7-1.9-0.7-2.6,0l-0.7,0.6c-0.3,0.3-0.8,0.6-0.9,0.6c-0.4,0-0.7-0.1-1.2-0.5L37,20.6
	c-3.3-2.1-4.8-5.1-4.8-5.2c-0.2-0.3-0.1-0.9,0.1-1.2l0.9-1.2c0.6-0.8,0.5-1.9-0.2-2.6l-3.2-3c-0.4-0.5-1.3-1.2-2-1.3
	c-1.1-0.1-1.7,0.8-2.1,1.4l-0.1,0.2c-1.2,1.8-1.6,3.9-1.1,6.3c0.9,4.4,4.8,9.3,10.2,12.8c2.5,1.6,4.7,2.4,6.7,2.4
	c0.6,0,1.2-0.1,1.8-0.2c2.6-0.7,3.6-2.8,3.7-2.8C47.2,25.3,47,24.2,46.4,23.6z M45.6,25.5c0,0.1-0.8,1.6-2.8,2.1
	c-2,0.5-4.5-0.1-7.4-2c-5.1-3.3-8.8-7.9-9.6-11.9c-0.4-2-0.1-3.8,0.9-5.3l0.1-0.2c0.4-0.6,0.6-0.8,0.9-0.8c0,0,0,0,0,0
	c0.2,0,0.7,0.4,1.1,0.9l3.2,3.1c0.2,0.2,0.2,0.6,0.1,0.8l-0.9,1.2c0,0,0,0,0,0c-0.5,0.7-0.6,1.8-0.2,2.6c0.1,0.1,1.7,3.3,5.3,5.7
	l0.1,0.1c0.5,0.4,1.2,0.8,2.1,0.7c0.5-0.1,1.3-0.7,1.6-0.9l0.7-0.6c0.2-0.2,0.6-0.2,0.8,0l3.9,3.7C45.7,24.8,45.8,25.3,45.6,25.5z"
	/>
<path class="st0" d="M76,8.4L53.8,33.6c-1,1.1-2.3,1.7-3.8,1.7H0V0h72.3C76.6,0,78.9,5.1,76,8.4z"/>
<g>
	<path class="st1" d="M36,6.1c-5.1,0-9.2,4.1-9.2,9.2c0,4.9,7,14.5,7.3,14.9c0.5,0.7,1.2,1.1,1.9,1.1s1.4-0.4,1.9-1.1
		c0.3-0.4,7.3-10,7.3-14.9C45.3,10.3,41.1,6.1,36,6.1z M37,29.5c-0.5,0.7-1.4,0.7-1.9,0C35,29.4,28,19.9,28,15.4c0-4.4,3.6-8,8-8
		s8,3.6,8,8C44,19.9,37.1,29.4,37,29.5z"/>
	<path class="st1" d="M36,10c-2.5,0-4.6,2.1-4.6,4.6c0,2.5,2.1,4.6,4.6,4.6s4.6-2.1,4.6-4.6C40.7,12.1,38.6,10,36,10z M36,18
		c-1.9,0-3.4-1.5-3.4-3.4c0-1.9,1.5-3.4,3.4-3.4c1.9,0,3.4,1.5,3.4,3.4C39.4,16.5,37.9,18,36,18z"/>
</g>
</svg>
