<?xml version="1.0" encoding="utf-8"?>
<!-- Generator: Adobe Illustrator 23.0.5, SVG Export Plug-In . SVG Version: 6.00 Build 0)  -->
<svg version="1.1" id="Capa_1" xmlns="http://www.w3.org/2000/svg" xmlns:xlink="http://www.w3.org/1999/xlink" x="0px" y="0px"
	 viewBox="0 0 77.3 35.4" style="enable-background:new 0 0 77.3 35.4;" xml:space="preserve">
<style type="text/css">
	.st0{fill:#D07212;}
	.st1{fill:#FFFFFF;}
</style>
<path class="st0" d="M76,8.4L53.8,33.6c-1,1.1-2.3,1.7-3.8,1.7H0V0h72.3C76.6,0,78.9,5.1,76,8.4z"/>
<path class="st1" d="M47.5,8.3H27.6c-1.6,0-2.9,1.3-2.9,2.9v11.4c0,1.6,1.3,2.9,2.9,2.9h19.9c1.6,0,2.9-1.3,2.9-2.9V11.2
	C50.4,9.6,49.1,8.3,47.5,8.3z M41.6,16.9l7.3-6.7c0.2,0.3,0.3,0.6,0.3,1v11.4c0,0.4-0.1,0.7-0.3,1L41.6,16.9z M47.5,9.5
	c0.1,0,0.3,0,0.4,0.1l-9.6,8.8c-0.4,0.4-1.1,0.4-1.6,0l-9.6-8.8c0.1,0,0.3-0.1,0.4-0.1H47.5z M26.2,23.6c-0.2-0.3-0.3-0.6-0.3-1
	V11.2c0-0.4,0.1-0.7,0.3-1l7.3,6.7L26.2,23.6z M27.6,24.4c-0.1,0-0.3,0-0.4-0.1l7.2-6.6l1.6,1.4c0.4,0.4,1,0.6,1.6,0.6
	c0.6,0,1.2-0.2,1.6-0.6l1.6-1.4l7.2,6.6c-0.1,0-0.3,0.1-0.4,0.1H27.6z"/>
</svg>
