<?xml version="1.0" encoding="utf-8"?>
<!-- Generator: Adobe Illustrator 23.0.5, SVG Export Plug-In . SVG Version: 6.00 Build 0)  -->
<svg version="1.1" id="Capa_1" xmlns="http://www.w3.org/2000/svg" xmlns:xlink="http://www.w3.org/1999/xlink" x="0px" y="0px"
	 viewBox="0 0 72.7 15.6" style="enable-background:new 0 0 72.7 15.6;" xml:space="preserve">
<style type="text/css">
	.st0{fill:url(#SVGID_1_);}
	.st1{fill:url(#SVGID_2_);}
	.st2{fill:url(#SVGID_3_);}
	.st3{fill:url(#SVGID_4_);}
	.st4{fill:url(#SVGID_5_);}
	.st5{fill:url(#SVGID_6_);}
	.st6{fill:#FFFFFF;}
</style>
<g>
	<g>
		<g>
			<g>
				<g>
					<linearGradient id="SVGID_1_" gradientUnits="userSpaceOnUse" x1="7.8129" y1="-0.3844" x2="7.8129" y2="16.1109">
						<stop  offset="0" style="stop-color:#18764C"/>
						<stop  offset="0.6" style="stop-color:#8CCAAE"/>
						<stop  offset="1" style="stop-color:#009461"/>
					</linearGradient>
					<rect class="st0" width="15.6" height="15.6"/>
					<linearGradient id="SVGID_2_" gradientUnits="userSpaceOnUse" x1="7.7884" y1="-3.8811" x2="7.7884" y2="14.6545">
						<stop  offset="0" style="stop-color:#009461"/>
						<stop  offset="0.3" style="stop-color:#8CCAAE"/>
						<stop  offset="0.55" style="stop-color:#009461"/>
						<stop  offset="0.8352" style="stop-color:#18764C"/>
						<stop  offset="0.8791" style="stop-color:#157C52"/>
						<stop  offset="0.9506" style="stop-color:#068E63"/>
						<stop  offset="1" style="stop-color:#009E73"/>
					</linearGradient>
					<path class="st1" d="M15.1,7.9c0,3.3,0.2,6.6,0.2,6.6c0,0.4-0.2,0.6-0.5,0.6H1.2c-0.3,0-0.5-0.3-0.5-0.6c0,0-0.4-2.9-0.4-7.2
						c0-4.4,0.4-6.4,0.4-6.4c0-0.4,0.2-0.6,0.5-0.6h13.5c0.3,0,0.6,0.3,0.5,0.6C15.3,0.9,15.1,4.6,15.1,7.9z"/>
					<g>
						<g>
							<linearGradient id="SVGID_3_" gradientUnits="userSpaceOnUse" x1="10.7573" y1="13.6309" x2="10.7573" y2="1.6358">
								<stop  offset="0" style="stop-color:#00A87E"/>
								<stop  offset="1" style="stop-color:#009461"/>
							</linearGradient>
							<path class="st2" d="M12.1,4.2c-1,0.6-1.3,0.6-2.3,1.2l0.1-0.1C10.4,4.7,10.7,4.5,11,4c-1,0.1-2.4,0.2-3.4,0.4l0,0l0,0l0,0
								l0.1-0.1c0.9-0.4,2.6-0.9,3.5-1C11,2.9,9.2,2,8.8,1.8l0,0l0,0l0,0l0-0.1c1.3,0.1,3,0.8,3.8,1.2c0.3-0.1,0.6-0.1,1.2-0.2
								c0,0-0.1,0.4-0.7,0.8l0,0l0,0l0,0C13.3,4,12.9,6.4,12.6,7l0,0l0,0l0,0C12.6,6,12.5,4.8,12.1,4.2z"/>
							<linearGradient id="SVGID_4_" gradientUnits="userSpaceOnUse" x1="3.3151" y1="13.632" x2="3.3151" y2="1.6324">
								<stop  offset="0" style="stop-color:#00A87E"/>
								<stop  offset="1" style="stop-color:#009461"/>
							</linearGradient>
							<path class="st3" d="M5.1,12.7l0-0.1c-0.5-0.2-1-0.4-1.4-0.7l0,0l0,0l0,0l0,0l0,0l0,0l0,0l0,0l0,0l0,0l0,0l0,0l0,0l0,0l0,0
								l0,0l0,0l0,0l0,0l0,0l0,0l0,0l0,0l0,0l0,0l0,0l0,0l0,0l0,0l0,0l0,0c0.1-0.4,0.3-0.6,0.5-1l0,0l0,0l0,0l0,0l0,0l0,0l0,0l0,0
								l0,0l0,0l0,0l0,0l0,0l0,0l0,0l0,0l0,0l0,0l0,0l0,0l0,0l0,0l0,0l0,0l0,0l0,0l0,0l0,0l0,0l0,0l0,0l0.1-0.1
								C3.8,10.8,3.4,10.9,3,11l0,0l0,0l0,0l0,0l0,0l0,0l0,0l0,0l0,0l0,0l0,0l0,0l0,0l0,0l0,0l0,0l0,0l0,0l0,0l0,0l0,0l0,0l0,0l0,0
								l0,0l0,0l0,0l0,0l0,0l0,0l0,0c-0.3-0.5-0.4-1.3-0.6-1.9l0,0.1l0,0l0,0l0,0l0,0l0,0l0,0l0,0l0,0l0,0l0,0l0,0l0,0l0,0l0,0l0,0
								c-0.1,0.8-0.1,1.3,0,2l0,0l0,0l0,0l0,0l0,0l0,0l0,0l0,0l0,0l0,0l0,0l0,0l0,0l0,0l0,0l0,0l0,0l0,0l0,0l0,0l0,0l0,0l0,0l0,0
								l0,0l0,0l0,0l0,0l0,0l0,0l0,0c-0.3,0.1-0.6,0.1-0.9,0.2l0,0.1l0,0l0,0l0,0l0,0l0,0l0,0l0,0l0,0l0,0l0,0l0,0l0,0l0,0l0,0l0,0
								l0,0l0,0l0,0l0,0l0,0l0,0l0,0l0,0l0,0l0,0l0,0l0,0l0,0l0,0l0,0l0,0c0.4,0.3,0.7,0.4,1.2,0.7l0,0l0,0l0,0l0,0l0,0l0,0l0,0l0,0
								l0,0l0,0l0,0l0,0l0,0l0,0l0,0l0,0l0,0l0,0l0,0l0,0l0,0l0,0l0,0l0,0l0,0l0,0l0,0l0,0l0,0l0,0l0,0C3,12.6,3.2,13,3.6,13.4l0,0
								l0,0l0,0l0,0l0,0l0,0l0,0l0,0l0,0l0,0l0,0l0,0l0,0l0,0l0,0l0,0l0,0l0,0l0,0l0,0l0,0l0,0l0,0l0,0l0,0l0,0l0,0l0,0l0,0l0,0l0,0
								l0.1-0.1c-0.1-0.3-0.2-0.5-0.1-0.9l0,0l0,0l0,0l0,0l0,0l0,0l0,0l0,0l0,0l0,0l0,0l0,0l0,0l0,0l0,0l0,0l0,0l0,0l0,0l0,0l0,0
								l0,0l0,0l0,0l0,0l0,0l0,0l0,0l0,0l0,0l0,0C4.1,12.6,4.5,12.7,5.1,12.7z"/>
							<linearGradient id="SVGID_5_" gradientUnits="userSpaceOnUse" x1="5.6337" y1="13.629" x2="5.6337" y2="1.6376">
								<stop  offset="0" style="stop-color:#00A87E"/>
								<stop  offset="1" style="stop-color:#009461"/>
							</linearGradient>
							<path class="st4" d="M6.5,4.8c0,0-0.2,0.4-0.4,0.9h0l0,0l0,0c1.2,0.2,2.3,0.6,2.6,0.8L8.7,6.6l0,0l0,0l0,0l0,0l0,0l0,0l0,0
								C7.4,6.4,6.8,6.4,6.3,6.4l0,0l0,0l0,0c-0.5,0-0.6,0.1-0.6,0.1l0,0l0,0l0,0l0,0l0,0l0,0l0,0C5.5,7.1,5.3,8.1,5.2,8.4L5.2,8.6
								l0,0l0,0l0,0l0,0l0,0l0,0l0,0C5,8,4.6,6.9,4.6,6.9l0,0l0,0l0,0l0,0l0,0l0,0l0,0C4,7.2,2.6,8.6,2.6,8.6l0,0l0,0l0,0l0,0l0,0
								l0,0l0,0C3.4,7,4.2,6.3,4.2,6.3l0,0l0,0l0,0l0,0l0,0l0,0l0,0C3.9,6,3.2,5.9,2.6,5.8l0,0l0,0l0,0l0-0.1c0.3-0.1,1-0.1,1.5-0.2
								l0,0l0,0l0,0l0,0l0,0l0,0l0,0c0.5,0,0.9,0,0.9,0l0,0l0,0l0,0C5.5,5.2,6.2,4.9,6.5,4.8z"/>
							<linearGradient id="SVGID_6_" gradientUnits="userSpaceOnUse" x1="7.6379" y1="13.6311" x2="7.6379" y2="1.6343">
								<stop  offset="0" style="stop-color:#00A87E"/>
								<stop  offset="1" style="stop-color:#009461"/>
							</linearGradient>
							<path class="st5" d="M8,11.7c-0.3,0.3-0.5,0.6-0.7,0.9l0,0l0,0l0,0l0,0l0,0l0,0l0,0l0,0l0,0l0,0l0,0l0,0l0,0l0,0l0,0l0,0l0,0
								l0,0l0,0l0,0l0,0l0,0l0,0l0,0l0,0l0,0l0,0l0,0l0,0l0,0l0,0c-0.4,0.1-0.9,0.1-1.3,0.1l0,0.1l0,0l0,0l0,0l0,0l0,0l0,0l0,0l0,0
								l0,0l0,0l0,0l0,0l0,0l0,0l0,0l0,0l0,0l0,0l0,0l0,0l0,0l0,0l0,0l0,0l0,0l0,0l0,0l0,0l0,0l0,0l0,0c0.3,0.1,0.6,0.2,0.9,0.3l0,0
								l0,0l0,0l0,0l0,0l0,0l0,0l0,0l0,0l0,0l0,0l0,0l0,0l0,0l0,0l0,0l0,0l0,0l0,0l0,0l0,0l0,0l0,0l0,0l0,0l0,0l0,0l0,0l0,0l0,0l0,0
								c-0.2,0.2-0.6,0.4-0.8,0.5L6,13.7l0,0l0,0l0,0l0,0l0,0l0,0l0,0l0,0l0,0l0,0l0,0l0,0l0,0l0,0l0,0l0,0l0,0l0,0l0,0l0,0l0,0l0,0
								l0,0l0,0l0,0l0,0l0,0l0,0l0,0l0,0l0,0c0.5-0.1,1.1-0.3,1.6-0.6l0,0l0,0l0,0l0,0l0,0l0,0l0,0l0,0l0,0l0,0l0,0l0,0l0,0l0,0l0,0
								l0,0l0,0l0,0l0,0l0,0l0,0l0,0l0,0l0,0l0,0l0,0l0,0l0,0l0,0l0,0l0,0c0.2,0,0.5,0,0.7,0l0,0l0,0l0,0l0,0l0,0l0,0l0,0l0,0l0,0
								l0,0l0,0l0,0l0,0l0,0l0,0l0,0l0,0l0,0l0,0l0,0l0,0l0,0l0,0l0,0l0,0l0,0l0,0l0,0l0,0l0,0l0,0c0,0,0.1-0.1,0.1-0.1
								c0-0.1-0.1-0.2-0.2-0.3l0,0l0,0l0,0l0,0l0,0l0,0l0,0l0,0l0,0l0,0l0,0l0,0l0,0l0,0l0,0l0,0l0,0l0,0l0,0l0,0l0,0l0,0l0,0l0,0
								l0,0l0,0l0,0l0,0l0,0l0,0l0,0c0.4-0.3,0.8-0.7,1.1-1l0,0l0,0l0,0l0,0l0,0l0,0l0,0l0,0l0,0l0,0l0,0l0,0l0,0l0,0l0,0l0,0l0,0
								l0,0l0,0l0,0l0,0l0,0l0,0l0,0l0,0l0,0l0,0l0,0l0,0l0,0l0,0l0.1-0.1c-0.4,0.3-0.8,0.6-1.3,0.8l0,0l0,0l0,0l0,0l0,0l0,0l0,0
								l0,0l0,0l0,0l0,0l0,0l0,0l0,0l0,0l0,0l0,0l0,0l0,0l0,0l0,0l0,0l0,0l0,0l0,0l0,0l0,0l0,0l0,0l0,0l0,0C8.1,12.1,8,11.9,8,11.7z
								"/>
						</g>
						<g>
							<path class="st6" d="M12.2,4.1c-1,0.6-1.3,0.6-2.3,1.2c0.6-0.7,0.8-0.9,1.2-1.5c-1,0.1-2.4,0.2-3.4,0.4l0,0l0,0l0,0
								c0.9-0.5,2.6-1,3.5-1.1C11,2.8,9.3,1.9,8.9,1.7l0,0l0,0l0,0c1.4,0.1,3,0.6,3.8,1.1c0.3-0.1,0.6-0.1,1.2-0.2l0,0l0,0l0,0
								c-0.2,0.3-0.2,0.4-0.7,0.8l0,0l0,0l0,0c0.2,0.4-0.2,2.8-0.5,3.4l0,0l0,0l0,0C12.6,5.9,12.6,4.7,12.2,4.1z"/>
							<path class="st6" d="M5.1,12.6c-0.6-0.2-1-0.4-1.4-0.9l0,0l0,0l0,0l0,0l0,0l0,0l0,0l0,0l0,0l0,0l0,0l0,0l0,0l0,0l0,0l0,0l0,0
								l0,0l0,0l0,0l0,0l0,0l0,0l0,0l0,0l0,0l0,0l0,0l0,0l0,0l0,0c0.1-0.4,0.3-0.6,0.5-1l0,0l0,0l0,0l0,0l0,0l0,0l0,0l0,0l0,0l0,0
								l0,0l0,0l0,0l0,0l0,0l0,0l0,0l0,0l0,0l0,0l0,0l0,0l0,0l0,0l0,0l0,0l0,0l0,0l0,0l0,0l0,0c-0.5,0.1-0.8,0.1-1.2,0.2l0,0l0,0
								l0,0l0,0l0,0l0,0l0,0l0,0l0,0l0,0l0,0l0,0l0,0l0,0l0,0l0,0l0,0l0,0l0,0l0,0l0,0l0,0l0,0l0,0l0,0l0,0l0,0l0,0l0,0l0,0l0,0
								c-0.3-0.6-0.5-1.1-0.6-1.8l0,0l0,0l0,0l0,0l0,0l0,0l0,0l0,0l0,0l0,0l0,0l0,0l0,0l0,0l0,0c-0.1,0.8-0.1,1.3,0,2l0,0l0,0l0,0
								l0,0l0,0l0,0l0,0l0,0l0,0l0,0l0,0l0,0l0,0l0,0l0,0l0,0l0,0l0,0l0,0l0,0l0,0l0,0l0,0l0,0l0,0l0,0l0,0l0,0l0,0l0,0l0,0
								c-0.4,0.1-0.6,0.2-0.9,0.3l0,0l0,0l0,0l0,0l0,0l0,0l0,0l0,0l0,0l0,0l0,0l0,0l0,0l0,0l0,0l0,0l0,0l0,0l0,0l0,0l0,0l0,0l0,0
								l0,0l0,0l0,0l0,0l0,0l0,0l0,0l0,0C2,11.6,2.3,11.8,2.8,12l0,0l0,0l0,0l0,0l0,0l0,0l0,0l0,0l0,0l0,0l0,0l0,0l0,0l0,0l0,0l0,0
								l0,0l0,0l0,0l0,0l0,0l0,0l0,0l0,0l0,0l0,0l0,0l0,0l0,0l0,0l0,0c0.2,0.5,0.5,0.9,0.9,1.3l0,0l0,0l0,0l0,0l0,0l0,0l0,0l0,0l0,0
								l0,0l0,0l0,0l0,0l0,0l0,0l0,0l0,0l0,0l0,0l0,0l0,0l0,0l0,0l0,0l0,0l0,0l0,0l0,0l0,0l0,0l0,0c-0.1-0.3-0.1-0.6-0.1-1l0,0l0,0
								l0,0l0,0l0,0l0,0l0,0l0,0l0,0l0,0l0,0l0,0l0,0l0,0l0,0l0,0l0,0l0,0l0,0l0,0l0,0l0,0l0,0l0,0l0,0l0,0l0,0l0,0l0,0l0,0l0,0
								C4.1,12.5,4.5,12.5,5.1,12.6z"/>
							<path class="st6" d="M6.6,4.7L6.6,4.7L6.6,4.7L6.6,4.7L6.6,4.7C6.4,4.9,6.2,5.4,6.1,5.6l0,0l0,0l0,0c1.4,0.2,2.6,0.9,2.6,0.9
								l0,0l0,0l0,0l0,0l0,0l0,0l0,0C7.5,6.3,6.8,6.3,6.3,6.3l0,0l0,0l0,0c-0.5,0-0.6,0.1-0.6,0.1l0,0l0,0l0,0l0,0l0,0l0,0l0,0
								c-0.3,0.7-0.5,2-0.5,2l0,0l0,0l0,0l0,0l0,0l0,0l0,0C5,7.9,4.7,6.8,4.7,6.8l0,0l0,0l0,0l0,0l0,0l0,0l0,0
								C4.1,7.1,2.6,8.5,2.6,8.5l0,0l0,0l0,0l0,0l0,0l0,0l0,0c0.8-1.6,1.6-2.3,1.6-2.3l0,0l0,0l0,0l0,0l0,0l0,0l0,0
								c-0.3-0.3-1-0.4-1.5-0.4l0,0l0,0l0,0c0.3-0.1,1-0.2,1.5-0.3l0,0l0,0l0,0l0,0l0,0l0,0l0,0c0.5,0,0.9,0,0.9,0l0,0l0,0l0,0
								C5.6,5.1,6.3,4.8,6.6,4.7z"/>
							<path class="st6" d="M8.1,11.6c-0.3,0.3-0.5,0.6-0.7,0.9l0,0l0,0l0,0l0,0l0,0l0,0l0,0l0,0l0,0l0,0l0,0l0,0l0,0l0,0l0,0l0,0
								l0,0l0,0l0,0l0,0l0,0l0,0l0,0l0,0l0,0l0,0l0,0l0,0l0,0l0,0l0,0c-0.5,0.1-0.9,0.2-1.3,0.2l0,0l0,0l0,0l0,0l0,0l0,0l0,0l0,0
								l0,0l0,0l0,0l0,0l0,0l0,0l0,0l0,0l0,0l0,0l0,0l0,0l0,0l0,0l0,0l0,0l0,0l0,0l0,0l0,0l0,0l0,0l0,0c0.3,0.1,0.6,0.2,0.9,0.3l0,0
								l0,0l0,0l0,0l0,0l0,0l0,0l0,0l0,0l0,0l0,0l0,0l0,0l0,0l0,0l0,0l0,0l0,0l0,0l0,0l0,0l0,0l0,0l0,0l0,0l0,0l0,0l0,0l0,0l0,0l0,0
								c-0.3,0.3-0.6,0.5-0.8,0.7l0,0l0,0l0,0l0,0l0,0l0,0l0,0l0,0l0,0l0,0l0,0l0,0l0,0l0,0l0,0l0,0l0,0l0,0l0,0l0,0l0,0l0,0l0,0
								l0,0l0,0l0,0l0,0l0,0l0,0l0,0l0,0c0.5-0.1,1.1-0.3,1.6-0.6l0,0l0,0l0,0l0,0l0,0l0,0l0,0l0,0l0,0l0,0l0,0l0,0l0,0l0,0l0,0l0,0
								l0,0l0,0l0,0l0,0l0,0l0,0l0,0l0,0l0,0l0,0l0,0l0,0l0,0l0,0l0,0c0.2,0,0.5,0,0.7,0l0,0l0,0l0,0l0,0l0,0l0,0l0,0l0,0l0,0l0,0
								l0,0l0,0l0,0l0,0l0,0l0,0l0,0l0,0l0,0l0,0l0,0l0,0l0,0l0,0l0,0l0,0l0,0l0,0l0,0l0,0l0,0c0-0.1-0.1-0.3-0.1-0.4l0,0l0,0l0,0
								l0,0l0,0l0,0l0,0l0,0l0,0l0,0l0,0l0,0l0,0l0,0l0,0l0,0l0,0l0,0l0,0l0,0l0,0l0,0l0,0l0,0l0,0l0,0l0,0l0,0l0,0l0,0l0,0
								c0.5-0.3,0.8-0.7,1.2-1l0,0l0,0l0,0l0,0l0,0l0,0l0,0l0,0l0,0l0,0l0,0l0,0l0,0l0,0l0,0l0,0l0,0l0,0l0,0l0,0l0,0l0,0l0,0l0,0
								l0,0l0,0l0,0l0,0l0,0l0,0l0,0c-0.4,0.3-0.7,0.5-1.2,0.7l0,0l0,0l0,0l0,0l0,0l0,0l0,0l0,0l0,0l0,0l0,0l0,0l0,0l0,0l0,0l0,0
								l0,0l0,0l0,0l0,0l0,0l0,0l0,0l0,0l0,0l0,0l0,0l0,0l0,0l0,0l0,0C8.1,12,8.1,11.8,8.1,11.6z"/>
						</g>
					</g>
				</g>
			</g>
		</g>
	</g>
</g>
<g>
	<g>
		<g>
			<path d="M19.5,1.9c0,0.5,0.1,1.9,0.1,2.4c0,0.5,0,2-0.1,2.7l0,0.1l2.4,0c1.2,0,2.4-0.4,2.4-1.4c0-0.7-0.5-1.1-1.4-1.4
				C23.6,4,24.1,3.5,24.1,3c0-0.9-1-1.2-1.9-1.2C22.2,1.8,19.5,1.8,19.5,1.9L19.5,1.9z M21.4,2.4c1,0,1.4,0.2,1.4,0.8
				c0,0.1,0,0.3-0.1,0.4c-0.2,0.2-0.6,0.3-1,0.3h0l-0.3,0.7h0.3c0.6,0,1,0.2,1.3,0.5C23,5.2,23,5.3,23,5.5c0,0.6-0.5,0.9-1.5,0.9
				c-0.2,0-0.4,0-0.6,0c0-0.8,0-1.8,0-2.1c0-0.4,0-1.2,0-1.9C21,2.4,21.2,2.4,21.4,2.4z"/>
			<path d="M29.9,1.8h-1.2l0,1.3c0,0.6,0,1.3,0.1,2l0,0l0,0c-0.1-0.2-0.1-0.3-0.5-0.8c0,0-1.2-1.9-1.6-2.4l0,0h-1.4l0,0
				c0,0.5,0.1,1.9,0.1,2.4c0,0.5,0,2-0.1,2.7l0,0.1h1.2l0-0.1c-0.1-1.3-0.1-2.5-0.1-3.8v0c0,0.1,0.1,0.3,0.3,0.6
				c0,0,2.1,3.1,2.2,3.2l0,0h1l0-0.1c-0.1-0.7-0.1-2.2-0.1-2.7C29.8,3.8,29.9,2.4,29.9,1.8L29.9,1.8L29.9,1.8z"/>
			<path d="M31.3,1.9c0,0.5,0.1,1.9,0.1,2.4c0,0.5,0,2-0.1,2.7l0,0.1h1.4l0-0.1c0-0.5-0.1-1.4-0.1-2.1c0.1,0,0.3,0,0.3,0l0.2,0
				c1.9,0,2.8-0.5,2.8-1.6c0-1.2-1.3-1.5-2.4-1.5L31.3,1.9L31.3,1.9z M33,2.4c0.7,0,1.1,0.1,1.4,0.4c0.1,0.1,0.2,0.3,0.2,0.5
				c0,0.7-0.8,0.9-1.5,0.9l-0.3,0c0,0-0.1,0-0.1,0c0-0.2,0-0.4,0-0.7c0-0.3,0-0.7,0-1.1C32.7,2.5,32.9,2.4,33,2.4z"/>
			<path d="M38.6,1.9c0,0.5,0.1,1.9,0.1,2.4c0,0.5,0,2-0.1,2.7l0,0.1h1.4l0-0.1C40,6.5,40,5.6,40,4.9c0.1,0,0.3,0,0.3,0l0.2,0
				c1.9,0,2.8-0.5,2.8-1.6c0-1.2-1.3-1.5-2.4-1.5L38.6,1.9L38.6,1.9z M40.4,2.4c0.7,0,1.1,0.1,1.4,0.4c0.1,0.1,0.2,0.3,0.2,0.5
				c0,0.7-0.8,0.9-1.5,0.9l-0.3,0c0,0-0.1,0-0.1,0c0-0.2,0-0.4,0-0.7c0-0.3,0-0.7,0-1.1C40.1,2.5,40.2,2.4,40.4,2.4z"/>
			<path d="M45.2,1.8L45.2,1.8L45.2,1.8c-0.3,0.8-2,4.5-2.3,5.1l0,0.1h1.2l0,0c0.1-0.4,0.2-0.8,0.4-1.2c0,0,1,0,1,0l0.8,0
				c0,0,0.1,0,0.2,0c0.2,0.6,0.4,1,0.5,1.2l0,0h1.4l-2.3-5.2h0H45.2z M45.5,3.3c0.1,0.2,0.4,0.9,0.7,1.8c-0.1,0-0.1,0-0.1,0l-0.6,0
				c0,0-0.7,0-0.8,0C45,4.4,45.3,3.8,45.5,3.3z"/>
			<path d="M49,1.9c0,0.5,0.1,1.9,0.1,2.4c0,0.5,0,2-0.1,2.7L49,7h1.4l0-0.1c-0.1-0.7-0.1-2.2-0.1-2.7c0-0.4,0-1.2,0-1.8
				c0.1,0,0.3,0,0.4,0c0.7,0,1.1,0.1,1.4,0.4c0.1,0.1,0.2,0.3,0.2,0.5c0,0.6-0.6,0.9-1.1,0.9c-0.2,0-0.3,0-0.3,0l-0.1,0l0.1,0.1
				c0.5,0.7,1.3,2,1.6,2.7l0,0H54l0-0.1c-0.1-0.1-1.1-1.6-1.5-2.2c0,0,0,0,0,0c0.8-0.2,1.2-0.7,1.2-1.4c0-1.2-1.3-1.5-2.4-1.5
				L49,1.9L49,1.9z"/>
			<path d="M56.1,1.8h-1.4l0,0c0,0.5,0.1,1.9,0.1,2.4c0,0.5,0,2-0.1,2.7l0,0.1h1.4l0-0.1C56,6.3,56,4.7,56,4.3
				C56,3.8,56.1,2.4,56.1,1.8L56.1,1.8L56.1,1.8z"/>
			<path d="M57.4,1.9c0,0.5,0.1,1.9,0.1,2.4c0,0.5,0,2-0.1,2.7l0,0.1l2.4,0c1.2,0,2.4-0.4,2.4-1.4c0-0.7-0.5-1.1-1.4-1.4
				C61.5,4,61.9,3.5,61.9,3c0-0.9-1-1.2-1.9-1.2L57.4,1.9L57.4,1.9z M59.3,2.4L59.3,2.4c1,0,1.4,0.2,1.4,0.8c0,0.1,0,0.3-0.1,0.4
				c-0.2,0.2-0.6,0.3-1,0.3h0l-0.3,0.7h0.3c0.6,0,1,0.2,1.3,0.5c0.1,0.1,0.2,0.3,0.2,0.5c0,0.6-0.5,0.9-1.5,0.9c-0.2,0-0.4,0-0.6,0
				c0-0.8,0-1.8,0-2.1c0-0.4,0-1.2,0-1.9C58.9,2.4,59.1,2.4,59.3,2.4z"/>
			<path d="M65.7,1.8h-1l0,0c-0.3,0.8-2.1,4.7-2.3,5.1l0,0.1h1.2l0,0c0.1-0.4,0.2-0.8,0.4-1.2c0,0,1,0,1,0l0.8,0c0,0,0.1,0,0.2,0
				c0.2,0.6,0.4,1,0.5,1.2l0,0h1.4L65.7,1.8L65.7,1.8z M65.2,3.3c0.1,0.2,0.4,0.9,0.7,1.7c-0.1,0-0.1,0-0.1,0l-0.6,0
				c0,0-0.7,0-0.8,0C64.7,4.4,64.9,3.8,65.2,3.3z"/>
			<path d="M68.5,3.2c0,0.9,0.9,1.3,1.7,1.6c0.6,0.3,1.3,0.5,1.3,0.9c0,0.1,0,0.2-0.1,0.3c-0.1,0.2-0.5,0.3-0.9,0.2
				c-0.5,0-1-0.2-1.6-0.5l-0.3-0.1l0,0.2v0.9l0.2,0l0.1,0c0.3,0.1,0.9,0.2,1.5,0.2c1.5,0,2.4-0.6,2.4-1.6c0-0.9-0.9-1.3-1.8-1.6
				c-0.6-0.2-1.2-0.5-1.2-0.9c0-0.1,0-0.5,0.8-0.5c0.6,0,1.2,0.2,1.5,0.4L72.2,3l0-0.2V1.8l-0.3-0.1c-0.3-0.1-0.8-0.2-1.3-0.2
				C69.3,1.6,68.5,2.3,68.5,3.2z"/>
		</g>
	</g>
	<g>
		<path d="M23.1,9.7c-0.2-0.1-0.6-0.3-1-0.3c-1.2,0-1.6,0.9-1.6,1.7c0,1.1,0.7,1.6,1.6,1.6c0.6,0,1-0.3,1.4-0.6l0,0.9
			c-0.4,0.2-0.9,0.3-1.6,0.3c-1.6,0-2.6-1-2.6-2.3c0-1.4,1.1-2.3,2.8-2.3c0.4,0,0.8,0.1,1.2,0.2L23.1,9.7z"/>
		<path d="M27.1,8.9c0.2,0.5,1.6,3.7,2,4.5h-1.2c-0.1-0.2-0.2-0.6-0.4-1.1c-0.3,0-0.5,0-0.9,0c-0.3,0-0.6,0-0.9,0
			c-0.1,0.4-0.3,0.7-0.4,1.1h-1.1c0.3-0.6,1.8-3.8,2-4.5H27.1z M27.2,11.7l-0.6-1.5c-0.2,0.4-0.4,0.9-0.7,1.5c0.2,0,0.5,0,0.7,0
			C26.7,11.7,26.9,11.7,27.2,11.7z"/>
		<path d="M31.8,8.9c0.9,0,2.1,0.3,2.1,1.3c0,0.6-0.3,1-1,1.2c0.1,0.2,1.2,1.8,1.4,2h-1.3c-0.3-0.6-1-1.7-1.4-2.4c0.1,0,0.2,0,0.3,0
			c0.4,0,0.9-0.3,0.9-0.8c0-0.6-0.8-0.8-1.2-0.8c-0.2,0-0.4,0-0.5,0c0,0.6,0,1.3,0,1.6c0,0.4,0,1.7,0.1,2.3h-1.2
			c0.1-0.6,0.1-1.4,0.1-2.3c0-0.8,0-1.7-0.1-2.1H31.8z"/>
		<path d="M36.8,8.9c1.9,0,2.6,1,2.6,2.2c0,1.3-0.7,2.2-2.7,2.2H35c0.1-0.6,0.1-1.4,0.1-2.3c0-0.4,0-1.6-0.1-2.1H36.8z M36.2,9.4
			c0,0.3,0,1.1,0,1.6c0,0.7,0,1.2,0,1.8c0.1,0,0.2,0,0.3,0c1.1,0,1.6-0.3,1.6-1.7c0-1.3-0.6-1.7-1.7-1.7L36.2,9.4z"/>
		<path d="M41.7,8.9c0,0.5-0.1,1.7-0.1,2.1c0,0.4,0,1.7,0.1,2.3h-1.2c0.1-0.6,0.1-2,0.1-2.3c0-0.4,0-1.6-0.1-2.1H41.7z"/>
		<path d="M46.4,8.9v0.6c-0.4,0-1.2,0-1.5,0c-0.2,0-0.5,0-0.7,0c0,0.3,0,0.6,0,0.9c0,0.1,0,0.3,0,0.4l1.6,0v0.7l-1.6-0.1
			c0,0.6,0,1.5,0.1,1.9H43c0.1-0.6,0.1-2,0.1-2.3c0-0.4,0-1.6-0.1-2.1H46.4z"/>
	</g>
</g>
</svg>
