<?xml version="1.0" encoding="utf-8"?>
<!-- Generator: Adobe Illustrator 23.0.5, SVG Export Plug-In . SVG Version: 6.00 Build 0)  -->
<svg version="1.1" id="LOGOTYPES" xmlns="http://www.w3.org/2000/svg" xmlns:xlink="http://www.w3.org/1999/xlink" x="0px" y="0px"
	 viewBox="0 0 843.5 205.4" style="enable-background:new 0 0 843.5 205.4;" xml:space="preserve">
<style type="text/css">
	.st0{fill:#774B98;}
	.st1{fill:#652F87;}
	.st2{fill:#3A245E;}
	.st3{fill:#E4D40A;}
	.st4{fill:#E1A611;}
</style>
<g>
	<polyline class="st0" points="42.3,154.7 0,134.3 70.6,12 124.7,12 27,181.1 	"/>
	<polygon class="st0" points="70.6,12 54.1,134.3 124.7,12 	"/>
	<g>
		<path class="st1" d="M160.5,74.2L124.7,12H70.6l53.7,93.1C137.6,97.3,150,87.2,160.5,74.2z"/>
		<path class="st1" d="M177.1,102.8c-6.3,15-15.6,30-29.1,43.2l20.3,35.2l27-46.8L177.1,102.8z"/>
	</g>
	<path class="st2" d="M158.5,134.3C142,155,116.9,172.8,79,181.1h89.2l27-46.8H158.5z"/>
</g>
<path class="st3" d="M27,181.1c0,0-0.3-21-27-46.8c0,0,160.4,18.9,187.8-115.4C187.8,18.9,205.7,181.1,27,181.1z"/>
<path class="st4" d="M27,181.1c0,0,133.4-28,160.8-162.2C187.8,18.9,205.7,181.1,27,181.1z"/>
<g>
	<path d="M327.5,179.1c-7.3,0.5-11.7,0.5-15.8-0.2c-2.8-0.3-4.2-1.9-5.7-6.2c-1.6-4.9-3.1-9.7-4.7-14.6c-1.6-4.7-3.6-6-8.4-6h-34.1
		c-4.9,0.2-6.5,1.8-8.4,7.8c-1.1,3.9-2.6,8.5-4.5,14c-1.3,3.6-3.7,5.4-7.3,5.4c-4.9,0-9.7,0.3-14.6-0.2c-3.9-0.5-5-2.4-3.7-7
		l10.7-33.3c7.6-23.7,15.4-47.3,23.1-71c1.6-4.7,3.4-6,8.4-6h14.8c4.4,0.2,9.9-0.3,15.4,0.2c2.8,0.3,4.4,2.1,5.8,6.5
		c11,33.8,21.9,67.6,33,101.5c0.3,1.3,0.6,2.8,1,4.6C332.8,177.4,331.4,178.9,327.5,179.1z M283.3,127.1c5.5-0.2,7-2.1,5.5-7.3
		c-1-3.1-2-6.5-3.4-10.7c-2.3-6.5-3.9-13.3-7-19.7c-0.5-1-1-2.3-2.3-2.3c-1,0-1.6,0.7-2.4,2.3c-4.2,10.2-7.3,20.8-10.6,31.2
		c-1.3,4.4,0.3,6.5,5.2,6.5H283.3z"/>
	<path d="M420.4,127.7v42.9c0,1.3,0,2.4-0.3,3.6c-0.5,3.2-1.6,4.4-5.5,4.5c-4.4,0.3-8.8,0.3-13,0c-4.4-0.2-5.8-2.1-5.8-6.5v-41.9
		c0-3.2-0.2-6.3-0.8-9.6c-1-4.2-3.6-7-8-7.6c-4.4-0.6-8.8-0.8-13,0c-5.2,1.1-8.1,4.7-8.5,11.2c-0.6,15.3,0,30.7-0.2,46
		c0,1.3-0.2,2.6-0.3,3.9c-0.5,3.2-1.8,4.4-5.5,4.5c-4.2,0.3-8.6,0.3-13,0c-4.4-0.2-5.8-2-5.8-6.5V98.5c0-4.6,1.5-6.3,6.2-6.5
		c4.5-0.3,9.1-0.5,13.8,0.2c3.1,0.3,4.5,2.3,4.5,6.2c0.2,1-0.3,2.1,0.5,2.6c1.1,0.5,1.9-0.5,2.8-1.1c3.6-2.4,6.5-5.7,10.4-7.5
		c5.5-2.6,11.4-2.1,17.1-2c4.7,0.2,9.3,0.7,13.6,2.8c6.7,3.1,8.9,8.9,9.9,15.6C420.6,114.9,420.4,121.4,420.4,127.7z"/>
	<path d="M520.2,132.3c-0.2,11.5-0.2,22.9-0.2,34.4c0.2,18.7-11,30.4-23.7,35.7c-5.7,2.6-12,2.8-18.2,2.8
		c-9.1,0.2-18.2,0.2-27.3,0.2c-4.7,0-6-1.3-6.2-6c0-2.6-0.2-5.2,0-7.6c0.3-4.4,2.3-6.2,6.7-6.3c8.4-0.2,16.9-0.2,25.3-0.3
		c3.6,0,7.3-0.3,10.9-1.3c5.4-1.5,7.8-4.7,8.1-10.6l0.2-2.8c0-3.2-0.8-3.9-4.1-3.4c-6,1.1-11.7,3.6-17.7,4.2
		c-11,1.3-22.1,1.3-32.3-3.6c-7.3-3.6-10.4-10.2-11.5-17.5c-2.3-14-2.6-27.8,0.8-41.6c2.4-9.4,8.8-14.9,18.4-16.7
		c9.9-1.9,20.1-2.3,30.2,0c4.2,1,7.5,3.7,11.2,5.8l1.3,0.6c2.1,1.1,3.2,0.5,3.4-1.9c0.3-3.7,0.8-4.2,4.6-4.4c5,0,10.2-0.3,15.4,0.3
		c3.4,0.3,4.7,2.4,4.7,7V132.3z M495.2,140.1c1-5.7,1-11.4,0.2-16.9c-0.8-5.7-3.4-9.7-9.3-11.2c-4.1-1.1-8.1-1.1-12.3-1.3l-7,0.5
		c-7.3,0.8-11.4,4.1-12.7,11.1c-1.1,5.8-1,12,0,17.9c1,5.8,4.2,9.4,9.9,10.6c6.3,1.3,12.8,1.3,19.2,0.3
		C490.8,149.8,494,146.7,495.2,140.1z"/>
	<path d="M613.5,139.7c-0.2,2.9-2.1,4.4-6.3,4.4h-45.5c-2.8,0.2-3.9,1.1-4.4,3.9c-0.5,2.1-0.6,4.4-0.3,6.5c0.5,3.4,3.1,5.5,7.8,6.2
		c8.3,1.1,16.6,0.5,24.9,0.3c6.5-0.2,9.7,2.4,9.7,9.1c0,1.8,0.2,3.6-0.3,5.5c-0.8,3.6-3.4,5.5-7.6,5.4c-10.2,0-20.6,0.5-31-0.5
		c-8.1-0.8-16.2-2.1-22.7-8c-5-4.7-7.1-10.9-8.1-17.5c-2-14.6-2.3-29.1,1-43.5c2.9-12.2,11.4-18.2,23.2-19.8
		c12.2-1.8,24.5-2,36.7,0.3c12.8,2.4,19.3,10.7,21.6,23.1C613.5,123.2,613.8,131.5,613.5,139.7z M565.5,110.3
		c-7.5,0.5-10.2,3.6-9.9,11c0.2,5,2.6,7.3,7.6,7.3h19.5c3.7-0.2,4.6-0.8,4.4-4.1l-0.3-5c-0.2-4.9-2.3-7.6-7-8.6
		C575.1,109.8,570.3,110,565.5,110.3z"/>
	<path d="M755.2,131.1v41.9c0,4.2-2,6-6,6c-4.2,0.2-8.4,0.2-12.7,0c-3.9,0-5.7-2-5.7-5.7c-0.2-14.5-0.2-28.9-0.2-43.4
		c0-2.6-0.2-5.4-0.6-8c-1.1-6-4.2-8.6-10.4-9.1c-3.1-0.2-6-0.2-8.9,0.3c-6.2,1-8.9,4.2-9.3,11.4c-0.8,15.1-0.2,30.2-0.3,45.5
		c0,1.3,0,2.8-0.2,4.1c-0.3,2.9-1.8,4.4-4.7,4.7c-4.9,0.5-9.6,0.5-14.5,0.2c-3.9-0.3-5.2-2.3-5.2-6.8l-0.2-42.1c0-2.9,0-6-0.6-8.9
		c-1.1-4.9-3.7-7.3-8.6-8.1c-3.7-0.5-7.6-0.5-11.4,0.2c-5.4,1-8.1,4.4-8.4,10.9c-0.8,12.8-0.2,25.7-0.3,38.5c-0.2,3.6,0,7.3-0.2,11
		c-0.3,3.6-1.6,5-5.2,5.4c-4.7,0.3-9.4,0.3-14.1,0c-3.7-0.5-5.2-2.3-5.2-6.7V98.5c0.3-4.2,1.8-6,5.8-6.2c4.7-0.3,9.6-0.2,14.3,0
		c2.1,0.2,3.6,1.5,4.1,3.6c0.3,1.3,0.6,2.4,1.1,3.7c0.5,1.1,1.5,1.3,2.4,0.6c1-0.8,2.1-1.6,2.9-2.6c5.8-6.3,13.5-7.5,21.4-7.1
		c2.6,0.2,5.2,0.2,7.6,0.6c4.4,0.8,8,2.9,10.9,6.3c3.4,4.4,6,4.6,10.1,0.8c6-6,13.5-7.8,21.8-7.8c4.6,0,9.1,0,13.5,1
		c9.9,2,14.6,7,16.1,17.4C755.5,116.3,755.2,123.8,755.2,131.1z"/>
	<path d="M843.3,147.7c0,8.6,0.2,17.1,0,25.7c0,3.7-1.9,5.5-5.8,5.7c-3.2,0.2-6.7,0.2-9.9,0c-4.4-0.2-8-4.1-8-8.8v-0.5l-0.3,0.3
		c-7.3,9.1-17.1,11.2-28.1,10.6c-4.6-0.2-9.1-0.3-13.6-1.3c-7.8-1.8-12.2-6.5-13.3-14.3c-1.3-7.5-1.3-15.1,0.2-22.7
		c1.6-8.8,6.7-13.5,16.4-15.1c13-2,26-2.6,38.7,2.3c0.2,0,0.3-0.2,0.3-0.2c0-3.9,0.2-7.8-1.8-11.4c-2-4.1-5.8-5-9.9-5.5
		c-8.8-1-17.4,0-26,2.3c-3.2,1-5.4-0.2-6.8-3.4c-1.3-2.9-2.1-5.8-2.8-8.9c-0.8-3.1,0.3-5,3.2-6.3c8.3-3.4,16.9-5,25.8-5
		c7.1,0,14.3-0.2,21.1,2.1c10.7,3.6,19.8,15.6,20.5,27C843.8,129.2,843.3,138.4,843.3,147.7z M820.1,144.5c0-0.3-0.2-0.5-0.5-0.7
		c-7.3-3.6-14.9-3.4-22.7-2.6c-4.2,0.3-8,1.6-9.1,6.5c-0.8,2.9-0.8,5.8-0.3,8.9c0.6,4.1,2.4,5.7,6.3,6.5c2.4,0.5,4.9,0.5,7.3,0.7
		l7.8-0.5c6.3-0.6,9.6-3.4,10.7-8.8C820.2,151.1,820.1,147.9,820.1,144.5z"/>
</g>
</svg>
