<?xml version="1.0" encoding="utf-8"?>
<!-- Generator: Adobe Illustrator 23.0.5, SVG Export Plug-In . SVG Version: 6.00 Build 0)  -->
<svg version="1.1" id="Capa_1" xmlns="http://www.w3.org/2000/svg" xmlns:xlink="http://www.w3.org/1999/xlink" x="0px" y="0px"
	 viewBox="0 0 347.5 22.9" style="enable-background:new 0 0 347.5 22.9;" xml:space="preserve">
<style type="text/css">
	.st0{fill:#D07212;}
	.st1{fill:#1B1F2E;}
	.st2{fill:#FFFFFF;}
</style>
<g>
	<path class="st0" d="M316.4,2.2l-20.8,20.7c-0.4,0.4-1.1,0.7-1.9,0.7H2.2C1,23.6,0,22.9,0,22.1V1.4C0,0.6,1,0,2.2,0h312.3
		C316.3,0,317.3,1.3,316.4,2.2z"/>
	<path class="st1" d="M345.5,0h-20.1c-0.7,0-1.3,0.2-1.7,0.6l-21.1,21c-0.9,0.9,0.1,2,1.7,2h20.1c0.7,0,1.3-0.2,1.7-0.6l21.1-21
		C348,1.1,347,0,345.5,0z"/>
</g>
<g>
	<g>
		<path class="st2" d="M28.3,8.6v2.1h5.2v2h-5.2V15H34v2h-7.9V6.6H34v2H28.3z"/>
		<path class="st2" d="M41.3,11.8l3.8,5.2h-2.6L40,13.6L37.5,17h-2.6l3.8-5.1l-3.8-5.2h2.6L40,10l2.5-3.4h2.6L41.3,11.8z"/>
		<path class="st2" d="M46.3,6.6H51c2.2,0,3.9,1.4,3.9,3.5s-1.7,3.5-3.9,3.5h-2.4v3.3h-2.2L46.3,6.6L46.3,6.6z M50.7,11.6
			c1.1,0,1.8-0.6,1.8-1.5s-0.8-1.5-1.8-1.5h-2.2v2.9h2.2V11.6z"/>
		<path class="st2" d="M58.5,8.6v2.1h5.2v2h-5.2V15h5.7v2h-7.9V6.6h7.9v2H58.5z"/>
		<path class="st2" d="M72.1,16.9l-2.4-3.3h-1.6v3.3h-2.2V6.6h4.6c2.2,0,3.9,1.4,3.9,3.5c0,1.5-0.9,2.7-2.3,3.2l2.5,3.6H72.1z
			 M68.1,11.6h2.2c1.1,0,1.8-0.6,1.8-1.5s-0.8-1.5-1.8-1.5h-2.2V11.6z"/>
		<path class="st2" d="M76.1,6.6h2.2v10.3h-2.2V6.6z"/>
		<path class="st2" d="M82.6,8.6v2.1h5.2v2h-5.2V15h5.7v2h-7.9V6.6h7.9v2H82.6z"/>
		<path class="st2" d="M90,6.6h2.2l5,6.7V6.6h2.2v10.3h-2.2l-5-6.7v6.7H90V6.6z"/>
		<path class="st2" d="M101.2,11.8c0-2.9,2.5-5.3,5.5-5.3c1.6,0,3,0.7,4,1.7L109,9.6c-0.6-0.7-1.5-1.2-2.4-1.2
			c-1.7,0-3.2,1.5-3.2,3.3s1.5,3.3,3.2,3.3c0.9,0,1.8-0.5,2.4-1.2l1.6,1.4c-1,1-2.4,1.7-4,1.7C103.7,17.1,101.2,14.7,101.2,11.8z"/>
		<path class="st2" d="M112,6.6h2.2v10.3H112V6.6z"/>
		<path class="st2" d="M123.2,15.3h-4.6l-0.7,1.6h-2.5l4.2-10.3h2.5l4.2,10.3h-2.5L123.2,15.3z M122.4,13.4l-1.5-3.8l-1.5,3.8H122.4
			z"/>
		<path class="st2" d="M139,14.9v2h-7.3V6.6h2.2v8.3H139z"/>
		<path class="st2" d="M147.4,15.3h-4.6l-0.7,1.6h-2.5l4.2-10.3h2.5l4.2,10.3H148L147.4,15.3z M146.6,13.4l-1.5-3.8l-1.5,3.8H146.6z
			"/>
		<path class="st2" d="M151.8,6.6h5.2c1.8,0,3.1,1.1,3.1,2.6c0,1-0.5,1.8-1.4,2.3c1.2,0.5,1.9,1.5,1.9,2.6c0,1.6-1.4,2.8-3.4,2.8
			h-5.4L151.8,6.6L151.8,6.6z M156.5,10.8c0.8,0,1.4-0.5,1.4-1.1s-0.6-1.1-1.4-1.1H154v2.3L156.5,10.8L156.5,10.8z M156.8,15
			c0.9,0,1.5-0.5,1.5-1.3s-0.6-1.3-1.5-1.3H154V15H156.8z"/>
		<path class="st2" d="M161.8,11.8c0-2.9,2.5-5.3,5.5-5.3s5.5,2.4,5.5,5.3s-2.5,5.3-5.5,5.3S161.8,14.7,161.8,11.8z M170.5,11.8
			c0-1.8-1.5-3.3-3.2-3.3s-3.2,1.5-3.2,3.3s1.5,3.3,3.2,3.3S170.5,13.6,170.5,11.8z"/>
		<path class="st2" d="M180.6,16.9l-2.4-3.3h-1.6v3.3h-2.2V6.6h4.6c2.2,0,3.9,1.4,3.9,3.5c0,1.5-0.9,2.7-2.3,3.2l2.5,3.6H180.6z
			 M176.6,11.6h2.2c1.1,0,1.8-0.6,1.8-1.5s-0.8-1.5-1.8-1.5h-2.2V11.6z"/>
		<path class="st2" d="M191.5,15.3h-4.6l-0.7,1.6h-2.5l4.2-10.3h2.5l4.2,10.3h-2.5L191.5,15.3z M190.7,13.4l-1.5-3.8l-1.5,3.8H190.7
			z"/>
		<path class="st2" d="M203.1,14.9v2h-7.3V6.6h2.2v8.3H203.1z"/>
	</g>
</g>
<g>
	<path class="st0" d="M316.4,2.2l-20.8,20.7c-0.4,0.4-1.1,0.7-1.9,0.7H2.2C1,23.6,0,22.9,0,22.1V1.4C0,0.6,1,0,2.2,0h312.3
		C316.3,0,317.3,1.3,316.4,2.2z"/>
	<path class="st1" d="M345.5,0h-20.1c-0.7,0-1.3,0.2-1.7,0.6l-21.1,21c-0.9,0.9,0.1,2,1.7,2h20.1c0.7,0,1.3-0.2,1.7-0.6l21.1-21
		C348,1.1,347,0,345.5,0z"/>
</g>
<g>
	<g>
		<path class="st2" d="M28.3,8.6v2.1h5.2v2h-5.2v2.3H34v2h-7.9V6.6H34v2H28.3z"/>
		<path class="st2" d="M35,15.4l1.3-1.5c1,0.8,2.1,1.4,3.4,1.4c1.1,0,1.7-0.5,1.7-1.2c0-0.7-0.6-1-2.2-1.3c-2.2-0.5-3.7-1.1-3.7-3.1
			c0-1.9,1.6-3.2,3.8-3.2c1.7,0,3,0.5,4,1.4l-1.2,1.6c-0.9-0.7-1.9-1.1-2.9-1.1c-0.9,0-1.5,0.5-1.5,1.1c0,0.8,0.6,1,2.2,1.3
			c2.2,0.5,3.7,1.2,3.7,3.1c0,2-1.5,3.3-4,3.3C37.8,17.1,36.2,16.5,35,15.4z"/>
		<path class="st2" d="M47.8,8.6h-3.2v-2h8.6v2h-3.2v8.3h-2.2V8.6z"/>
		<path class="st2" d="M54.7,12.5V6.6H57v5.8c0,1.6,1,2.7,2.5,2.7c1.4,0,2.4-1.1,2.4-2.7V6.6h2.2v5.9c0,2.7-1.9,4.6-4.7,4.6
			C56.7,17.1,54.7,15.2,54.7,12.5z"/>
		<path class="st2" d="M66.2,6.6h3.7c3.5,0,5.9,2.1,5.9,5.1s-2.5,5.2-5.9,5.2h-3.7V6.6z M70.2,14.9c2,0,3.4-1.3,3.4-3.1
			c0-1.8-1.4-3.1-3.4-3.1h-1.8v6.3H70.2z"/>
		<path class="st2" d="M77.5,6.6h2.2v10.3h-2.2V6.6z"/>
		<path class="st2" d="M81.4,11.8c0-2.9,2.5-5.3,5.5-5.3c3,0,5.5,2.4,5.5,5.3s-2.5,5.3-5.5,5.3C83.9,17.1,81.4,14.7,81.4,11.8z
			 M90.1,11.8c0-1.8-1.5-3.3-3.2-3.3c-1.7,0-3.2,1.5-3.2,3.3c0,1.8,1.5,3.3,3.2,3.3C88.6,15.1,90.1,13.6,90.1,11.8z"/>
		<path class="st2" d="M93.3,15.4l1.3-1.5c1,0.8,2.1,1.4,3.4,1.4c1.1,0,1.7-0.5,1.7-1.2c0-0.7-0.6-1-2.2-1.3
			c-2.2-0.5-3.7-1.1-3.7-3.1c0-1.9,1.6-3.2,3.8-3.2c1.7,0,3,0.5,4,1.4l-1.2,1.6c-0.9-0.7-1.9-1.1-2.9-1.1c-0.9,0-1.5,0.5-1.5,1.1
			c0,0.8,0.6,1,2.2,1.3c2.2,0.5,3.7,1.2,3.7,3.1c0,2-1.5,3.3-4,3.3C96.1,17.1,94.5,16.5,93.3,15.4z"/>
	</g>
</g>
</svg>
